<?xml version="1.0" encoding="UTF-8" standalone="no"?>
<!-- Created with Inkscape (http://www.inkscape.org/) -->

<svg
   xmlns="http://www.w3.org/2000/svg"
   version="1.1"
   width="1457.3516"
   height="813.95239"
   id="svg4019">
  <defs
     id="defs4021" />
  <g
     transform="translate(522.96149,-165.38601)"
     id="layer1">
    <g
       transform="matrix(0.07354951,-0.00423954,0.02262301,-0.06724065,-794.23169,1029.2545)"
       id="g6-1-2-1"
       style="fill:#24cd9f;fill-opacity:1;stroke:none">
      <path
         d="m 1098.75,-466.46875 c -0.5893,-0.005 -1.1764,0.007 -1.7812,0.0312 -2.2332,0.0885 -4.5957,0.38844 -7.0313,0.875 -21.8042,4.35586 -49.8598,24.55647 -60.4375,43.5625 -7.5175,13.55471 -7.3815,23.36306 0.6875,33.25 5.4718,6.67388 12.2583,11.65169 23.6875,17.125 7.2705,3.47117 9.5607,5.04816 12.5312,8.4375 2.8972,3.39358 3.4406,4.53773 2.875,6.21875 -0.588,1.74826 -0.3221,2.25456 1.4376,2.8125 1.0918,0.39861 3.3986,2.33296 5,4.21875 2.4669,2.95681 2.7943,3.71352 1.9062,5.28125 -2.1212,3.94659 0.8957,7.801 7.7812,9.84375 3.0214,0.88083 4.7524,2.55256 14.2813,14.53125 11.6678,14.62474 16.6475,21.27721 27.6875,37.125 11.8774,16.78856 14.0893,20.27264 13.75,21.28125 -0.543,1.61378 0.8344,7.40471 2,8.65625 0.6564,0.62153 2.173,1.2761 3.4062,1.46875 1.7257,0.23021 2.6414,1.14209 3.875,3.90625 0.8434,1.99543 1.3168,4.40238 1,5.34375 -0.5259,1.34905 -0.01,2.07411 1.6876,3.03125 1.2729,0.71786 2.4153,2.02631 2.5624,2.875 0.2889,1.4999 -0.2385,1.97786 -6.75,6.96875 -3.8694,2.92645 -12.4004,8.98129 -18.9062,13.3125 -6.5794,4.33545 -11.972,8.13729 -12.0625,8.40625 -0.091,0.26896 -7.947,4.98529 -17.3437,10.40625 -29.1579,16.7802 -39.7929,24.31828 -46.9376,32.90625 -11.1779,13.50196 -5.6129,29.54084 10.5626,30.125 8.6052,0.36114 20.8056,-3.70594 29.0312,-9.71875 5.1481,-3.72545 7.6998,-6.76384 9.125,-11 1.3121,-3.89996 0.8858,-6.797 -1.3438,-10.03125 -1.7201,-2.60424 -6.5475,-4.89642 -8.3124,-3.9375 -1.9122,0.9674 -0.4624,-0.8278 4.25,-5.1875 5.046,-4.70862 28.1246,-22.05293 29.375,-22.125 0.4411,-0.0254 2.3526,-0.98289 4.4062,-2.15625 2.0027,-1.23636 5.3131,-2.7581 7.4062,-3.40625 3.089,-1.03523 21.9492,-5.14275 33.2813,-7.3125 2.2461,-0.45915 2.4262,-0.15947 5.3125,7.125 3.4239,8.90189 5.7722,16.69407 7.9062,26 1.387,6.38185 1.6501,6.70745 4.2188,7.21875 1.4824,0.31017 6.0909,1.4138 10.125,2.5 l 7.4688,2 3.3124,4.78125 c 7.0866,-15.67322 15.4224,-30.53684 25.0938,-44.5625 l 0.031,-0.0312 0.063,0 c 8.1488,-11.6003 16.952,-22.09533 26.375,-31.5 -6.9372,-4.87918 -12.3038,-9.2814 -18.6563,-15.375 -4.3682,-4.16596 -4.6173,-4.67429 -3.5313,-6.1875 0.6845,-0.96257 4.3892,-6.63308 8.2188,-12.65625 7.8684,-12.45401 10.5441,-15.83455 15.4375,-19.875 1.8951,-1.55985 3.5119,-3.19505 3.625,-3.53125 0.2941,-0.87413 14.4225,-10.50161 22.75,-15.53125 5.6969,-3.4274 16.8142,-9.2844 17.8437,-9.34375 0.1471,-0.008 -0.042,0.59189 -0.5624,1.28125 -1.4595,2.1941 -0.163,7.7814 2.3437,10.40625 2.2011,2.24684 5.8798,3.67806 8.9687,3.5 6.1782,-0.35612 16.2624,-6.66439 22.9376,-14.5 12.5696,-14.63717 13.1406,-28.98539 1.3437,-34.4375 -5.1261,-2.34198 -9.0939,-2.55467 -15.7187,-0.65625 -10.4268,2.9088 -23.4035,11.61209 -50.75,34.15625 -8.4914,7.01719 -15.7574,12.7913 -16.125,12.8125 -0.3904,0.0884 -4.6521,2.89574 -9.5626,6.34375 -21.684,15.36035 -29.1538,20.03674 -31.2812,19.5 -0.7186,-0.22233 -1.6035,-1.50958 -1.9375,-2.875 -0.334,-1.36542 -1.1877,-2.62142 -1.9063,-2.84375 -0.741,-0.15509 -2.646,-1.4249 -4.2812,-2.78125 -2.5632,-2.02816 -2.8864,-2.73702 -2.2812,-4.75 0.9443,-3.02159 -1.373,-6.27207 -5.5938,-7.875 -3.3778,-1.32184 -6.1399,-4.9108 -21.5938,-28.21875 -7.905,-11.87448 -26.0073,-41.16211 -28.5312,-46.09375 -0.5999,-1.21822 -1.1159,-4.03796 -1.0312,-6.21875 0.163,-7.98773 -2.0013,-11.80709 -6.25,-10.96875 -1.9067,0.30771 -2.4872,-0.12579 -4.2188,-3.125 -1.2676,-2.23472 -1.7822,-4.10217 -1.375,-5.3125 0.7013,-2.08446 0.069,-2.9887 -2.5,-3.5 -4.1472,-0.75 -6.6973,-7.58555 -7.3438,-19.8125 -0.7882,-15.44967 -3.1229,-23.0254 -10.2187,-32.375 -4.8792,-6.3987 -11.9725,-9.73661 -20.8125,-9.8125 z m 171.2188,250.375 c -6.504,7.07275 -12.6922,14.79402 -18.5938,23.1875 -0.021,0.0301 -0.072,0.0324 -0.094,0.0625 -11.2053,16.26443 -20.5483,33.77171 -28.0624,52.5 L 1240.0625,-116 c 1.5245,2.20272 2.837,4.07318 4.3437,6.25 4.3388,-37.22168 13.8935,-69.27366 28.9688,-95.96875 -3.5298,-5.52764 -3.6265,-6.72892 -3.5312,-8.65625 0.035,-0.48427 0.061,-1.08443 0.125,-1.71875 z m 16.2187,29 c -13.5986,27.65188 -21.6749,61.98786 -23.875,103.1875 80.0137,115.484699 134.8304,193.95322 185.4063,265.09375 l -0.031,0.0312 6.8437,9.53125 14.1563,19.78125 c -0.011,1.8e-4 -0.021,-3.3e-4 -0.031,0 1.742,2.43791 3.4783,4.87946 5.2188,7.3125 0.025,-0.0116 0.037,-0.0197 0.062,-0.0312 l 11.8437,16.53125 c -0.021,0.0114 -0.041,0.0199 -0.062,0.0312 0.2524,0.35202 0.4974,0.71042 0.75,1.0625 28.8587,40.27221 38.2351,48.8941 91.0312,84.6875 10.9711,7.47781 24.0635,16.54891 29.0312,20.21875 5.0415,3.6656 9.6046,6.83219 10.125,7 2.6536,0.90203 2.1227,-2.49865 -2.0312,-12.875 -2.4618,-6.18801 -8.4369,-22.25208 -13.3438,-35.75 -14.675,-40.62823 -25.1757,-64.56465 -35.5312,-81.375 -1.066,-1.732 -5.8116,-8.87316 -11.8125,-17.875 l 0.3125,-0.15625 -39.4688,-58.03125 c 0.01,-0.0217 0.023,-0.0408 0.031,-0.0625 -5.2357,-7.735 -10.4941,-15.44816 -14.5,-21.3125 -31.2182,-45.644893 -63.5452,-92.357769 -103.9063,-150.09375 -9.0395,2.906066 -19.4014,4.281374 -30.7812,4.28125 -24.9529,3e-4 -46.5301,-12.376525 -61.5312,-34.53125 -0.037,-0.05488 -0.088,-0.10125 -0.125,-0.15625 -13.4164,-19.231375 -20.1564,-41.87684 -20.1563,-66.84375 -10e-5,-16.65474 3.9541,-32.29527 11.5313,-46.625 -3.8802,-5.50279 -6.3657,-9.05309 -9.1563,-13.03125 z m 22.4063,31.84375 c -2.9446,8.17505 -4.4787,16.80701 -4.6563,26 1.5577,-7.17872 4.274,-14.25077 8.0313,-21.21875 -1.1258,-1.59759 -2.2379,-3.1676 -3.375,-4.78125 z m 16.6562,23.65625 c -1.9831,5.6657 -2.9375,11.2075 -2.9375,16.65625 -10e-5,12.26156 3.9018,24.126937 12.5937,36.375 8.3373,11.748875 16.6267,16.187713 27.4376,16.1875 3.5001,1.01e-4 6.9281,-0.529739 10.375,-1.6875 -14.6782,-20.934644 -30.3308,-43.18929 -47.4688,-67.53125 z"
         transform="matrix(13.865178,-0.87420248,4.6649177,-15.16608,-12290.491,6685.0131)"
         id="path8-7-4-7"
         style="fill:#24cd9f;fill-opacity:1" />
    </g>
    <g
       transform="matrix(1.25,0,0,1.25,-789.02607,1443.1439)"
       id="text3050-5-14"
       style="font-size:526.87579346px;font-style:normal;font-variant:normal;font-weight:normal;font-stretch:normal;line-height:125%;letter-spacing:0px;word-spacing:0px;fill:#24cd9f;fill-opacity:1;stroke:none;font-family:Cardinal;-inkscape-font-specification:Cardinal">
      <path
         d="m 671.69227,-668.94303 c -3.2e-4,-41.45135 -12.6491,-79.38697 -37.94637,-113.80697 -27.74185,-37.22783 -61.81316,-55.8419 -102.21404,-55.84228 -25.28702,3.8e-4 -48.11378,8.07737 -68.48034,24.23102 -22.48922,17.21555 -33.73377,38.11283 -33.73369,62.69191 -8e-5,18.61972 4.92008,34.95594 14.7605,49.00871 10.89071,16.15423 25.11523,24.23123 42.67359,24.23102 19.66979,2.1e-4 33.19219,-5.26833 40.56725,-15.80563 2.46526,-3.51571 4.83959,-8.69849 7.12299,-15.54837 2.28302,-6.8494 3.8295,-15.24551 5.57694,-26.12587 -6.76904,7.39154 -15.5543,13.4561 -22.70105,11.63871 -1.7e-4,2.80872 -1.7e-4,4.56668 0,5.27391 -1.7e-4,7.72887 -3.60186,14.22745 -10.80507,19.49575 -7.20353,5.26877 -14.66953,7.90304 -22.39801,7.90282 -11.23397,2.2e-4 -20.71519,-5.44519 -28.4437,-16.33624 -7.72873,-10.89057 -11.59304,-22.12976 -11.59294,-33.71761 -10e-5,-15.10322 7.55165,-30.20672 22.65527,-45.31054 15.10338,-15.10318 30.20688,-22.65493 45.31055,-22.65528 40.39017,3.5e-4 70.24879,27.04515 89.57596,81.1345 14.39577,39.34011 23.14789,83.44798 21.59406,132.24956 -1.95122,61.28227 -60.59054,93.00402 -78.70564,96.5717 -59.69781,11.7572 -80.85536,-11.95366 -112.55375,-47.04847 -4.90953,-6.67804 -8.77116,-12.03502 -11.5849,-16.07093 -2.81389,-4.03572 -4.56918,-6.93261 -5.26586,-8.69068 -13.00259,-25.99421 -19.50385,-68.14252 -19.5038,-126.44505 -5e-5,-48.12945 8.78442,-86.76718 26.35344,-115.91332 21.42781,-35.83429 54.62014,-53.7516 99.57708,-53.752 18.96228,4e-4 33.88891,2.81421 44.77994,8.44146 2.80824,1.40462 7.28623,4.21307 13.43399,8.42538 6.14728,4.21307 14.1412,10.00685 23.98178,17.38137 l 10.00113,0 0,-10.53173 c -7.37516,-6.67775 -14.31055,-12.21159 -20.8062,-16.60154 -6.49614,-4.38916 -13.34578,-7.81398 -20.54892,-10.27446 -7.2036,-2.45968 -14.84379,-4.21497 -22.92058,-5.26587 -8.0772,-1.05008 -17.38424,-1.57533 -27.92114,-1.57574 -56.20149,4.1e-4 -100.4615,23.00404 -132.78016,69.01096 -28.09534,40.74442 -42.14299,90.62134 -42.14299,149.63092 0,46.01817 11.41606,91.50554 34.24822,136.46225 -7.37492,14.05306 -12.82033,25.29761 -16.33624,33.73368 l 25.82283,-19.50379 c 36.52063,35.1272 83.5838,52.77812 141.18946,52.69079 16.82957,-0.0255 42.21671,-9.43241 48.47811,-14.22989 29.13222,-22.3211 50.73804,-53.12521 67.43521,-89.55988 15.97573,-34.86042 24.24677,-71.30472 24.24709,-109.59428 z m -183.71924,182.20095 c -28.4492,-0.70744 -25.62911,-19.57818 -34.40811,-33.63124 l -1.15124,26.17793 c 6.3973,22.51947 27.53118,16.45971 35.55935,7.45331 z"
         id="path3924-2"
         style="fill:#24cd9f;fill-opacity:1" />
      <path
         d="m 816.54773,-465.57618 33.20308,0 0,-216.021 c -24.94399,16.51866 -42.33071,27.58634 -52.16019,33.20308 7.02103,11.23401 11.23371,19.83625 12.63808,25.80675 1.75783,7.03202 2.63681,16.34174 2.63695,27.92918 -1.4e-4,73.75966 -16.331,110.63943 -48.99263,110.63941 -23.89342,2e-5 -35.84009,-19.1393 -35.84003,-57.41801 -6e-5,-2.11163 0.17681,-4.74858 0.5306,-7.91086 0.35369,-3.16211 0.79318,-6.49849 1.31848,-10.00916 0.52519,-3.51048 0.96468,-6.84686 1.31847,-10.00916 0.35368,-3.16209 0.53055,-5.79904 0.53061,-7.91085 l 0,-104.32038 c -6.32445,3.86988 -13.35095,8.35055 -21.07953,13.44202 -7.72866,5.09187 -16.15939,10.97677 -25.29223,17.65471 7.02114,13.34572 10.53171,32.83878 10.53173,58.47923 -2e-5,2.80858 -0.0858,6.32183 -0.25726,10.53976 -0.17153,4.21817 -0.43416,9.31251 -0.78787,15.28307 -0.35376,5.61701 -0.53063,10.53181 -0.53061,14.74442 -2e-5,4.21277 -2e-5,7.72334 0,10.53172 -2e-5,56.55513 15.45722,84.83266 46.37176,84.83267 21.07409,-10e-6 40.04189,-12.29506 56.90348,-36.88517 l 7.36417,-0.51452 c -1.3e-4,9.47589 3.86418,18.78024 11.59294,27.91309 z"
         id="path3926-3"
         style="fill:#24cd9f;fill-opacity:1" />
      <path
         d="m 1043.1648,-641.54446 c -2e-4,-14.40657 -8.4309,-26.87848 -25.2922,-37.41577 -14.7499,-9.47565 -29.85344,-14.21359 -45.31058,-14.21381 -28.80287,2.2e-4 -52.16024,13.69414 -70.07216,41.08177 -15.81101,23.89352 -23.7165,50.94368 -23.71649,81.15058 -10e-6,27.39865 7.90548,51.635 23.71649,72.70912 17.20445,23.17517 38.98072,34.76273 65.32886,34.76274 26.33724,-10e-6 49.87148,-10.00648 70.60278,-30.01944 -14.7499,2.45474 -25.9891,4.29578 -33.7176,5.52312 -7.72876,1.22738 -12.29519,1.84106 -13.6993,1.84105 -25.64069,10e-6 -48.82655,-18.79093 -69.55763,-56.37288 1.06116,-4.21262 21.61006,-20.01823 61.64678,-47.4169 40.04725,-27.75215 60.07085,-44.962 60.07105,-51.62958 z m -42.1591,14.22989 c -1e-4,7.02131 -27.04491,28.62071 -81.13447,64.79826 -2.11176,-6.67803 -3.16761,-15.10876 -3.16756,-25.29222 -5e-5,-60.76762 12.29499,-91.15149 36.88516,-91.1517 11.24447,2.1e-4 21.95842,5.61981 32.14187,16.8588 10.18322,11.23939 15.2749,22.835 15.275,34.78686 z"
         id="path3928-22"
         style="fill:#24cd9f;fill-opacity:1" />
      <path
         d="m 1284.3172,-834.37959 c -1.7582,-20.02329 -9.1384,-30.03512 -22.1407,-30.03552 -6.3139,4e-4 -9.4708,4.21309 -9.4706,12.63808 -2e-4,10.19444 5.0915,17.92574 15.2751,23.19391 10.1831,5.2689 15.2748,14.92432 15.275,28.96627 -2e-4,20.73147 -5.6172,40.932 -16.8508,60.60165 -3.8699,6.66768 -8.9669,14.12832 -15.2911,22.38194 -6.3246,8.25411 -14.0478,17.47807 -23.1698,27.67191 -35.4811,-16.16449 -61.127,-24.24685 -76.9379,-24.24709 -22.4784,2.4e-4 -40.3904,6.67569 -53.7359,20.02636 -13.3456,13.35112 -20.0183,31.26576 -20.0183,53.74397 0,18.96262 2.2832,32.48502 6.8496,40.56725 2.4547,4.21281 11.5876,14.57302 27.3986,31.08065 -11.9414,14.05311 -22.3043,26.34815 -31.0887,36.88516 -8.7845,10.53715 -16.1621,19.31626 -22.1327,26.33736 7.3749,3.86971 14.7524,7.91089 22.1327,12.12355 7.3802,4.21271 14.7578,8.43076 22.1327,12.65415 17.9119,8.42539 34.0659,12.63807 48.462,12.63807 23.5395,0 44.619,-7.72862 63.2386,-23.18588 20.0128,-16.15396 30.0193,-36.00076 30.0195,-59.54043 -2e-4,-14.39595 -6.3192,-29.84782 -18.9571,-46.35568 -1.0614,-1.4041 -4.4889,-5.26841 -10.2825,-11.59294 -5.794,-6.32425 -14.1363,-15.10336 -25.027,-26.33736 14.4067,-14.05284 25.9111,-25.38315 34.5136,-33.99095 8.602,-8.6074 14.4842,-14.84068 17.6466,-18.69985 18.973,-21.42767 31.7933,-42.33031 38.4609,-62.70799 7.3747,-22.12436 11.0621,-40.03632 11.0624,-53.73593 -3e-4,-11.58723 -2.455,-21.94744 -7.3642,-31.08066 z m -103.8058,185.98549 c -2e-4,7.02132 -4.7381,14.39621 -14.2139,22.12466 -9.1329,7.72878 -17.3868,11.59309 -24.7616,11.59294 -5.6277,1.5e-4 -11.1642,-1.05302 -16.6096,-3.15951 -5.4454,-2.1062 -10.2745,-4.91733 -14.4871,-8.43343 -4.2128,-3.51577 -7.5491,-7.73113 -10.0092,-12.64611 -2.4601,-4.91463 -3.6901,-10.00898 -3.6901,-15.28306 0,-7.3747 3.8643,-15.62856 11.5929,-24.76162 7.7286,-9.47565 15.2804,-14.21359 22.6553,-14.21381 10.8907,2.2e-4 21.7816,4.91502 32.6725,14.74442 11.2337,10.18355 16.8506,20.19538 16.8508,30.03552 z m 29.5049,118.01966 c -2e-4,12.63812 -2.546,21.3288 -7.6375,26.07206 -5.0919,4.74333 -14.1336,7.11497 -27.1253,7.11494 -6.3245,3e-5 -12.6489,-1.14157 -18.9732,-3.42482 -6.3245,-2.28318 -12.2951,-5.35694 -17.9119,-9.22129 -5.617,-3.86427 -10.7087,-8.43069 -15.2751,-13.69929 -4.5665,-5.26848 -8.4308,-11.06494 -11.5929,-17.38941 3.8589,-4.56635 7.7205,-9.13009 11.5849,-13.69124 3.8642,-4.56098 7.7312,-9.12472 11.601,-13.69125 11.2337,-11.24445 21.5939,-16.86672 31.0806,-16.86684 11.9412,1.2e-4 22.4783,6.32451 31.6113,18.97319 8.4252,11.23393 12.6379,23.17523 12.6381,35.82395 z"
         id="path3930-1"
         style="fill:#24cd9f;fill-opacity:1" />
      <path
         d="m 1378.7329,-677.36841 0,-7.38025 -34.7788,0 c -1.0506,-15.10328 -1.5758,-27.39833 -1.5757,-36.88517 -10e-5,-25.64032 3.1621,-53.56411 9.4866,-83.77145 l -58.4954,59.00984 14.7605,19.48771 0.5306,42.15907 -36.3545,0 0,8.42538 34.2482,0 c 0.6967,19.3164 1.222,40.91848 1.5757,64.8063 0.3537,23.88812 0.5306,50.23349 0.5306,79.0362 0,30.5608 -7.0265,52.33707 -21.0795,65.32886 l 72.1785,0 c -11.9414,-9.48658 -17.912,-30.21236 -17.912,-62.17739 0,-8.07157 0.088,-18.25491 0.2654,-30.55004 0.1767,-12.29495 0.442,-26.69634 0.7959,-43.20421 0.3429,-16.86133 0.6028,-31.35115 0.7798,-43.4695 0.1768,-12.11799 0.2652,-22.21826 0.2653,-30.30082 z"
         id="path3932-68"
         style="fill:#24cd9f;fill-opacity:1" />
    </g>
  </g>
</svg>
